<?xml version="1.0" encoding="utf-8" standalone="no"?>
<!DOCTYPE svg PUBLIC "-//W3C//DTD SVG 1.1//EN"
  "http://www.w3.org/Graphics/SVG/1.1/DTD/svg11.dtd">
<!-- Created with matplotlib (https://matplotlib.org/) -->
<svg height="345.6pt" version="1.1" viewBox="0 0 460.8 345.6" width="460.8pt" xmlns="http://www.w3.org/2000/svg" xmlns:xlink="http://www.w3.org/1999/xlink">
 <defs>
  <style type="text/css">
*{stroke-linecap:butt;stroke-linejoin:round;}
  </style>
 </defs>
 <g id="figure_1">
  <g id="patch_1">
   <path d="M 0 345.6 
L 460.8 345.6 
L 460.8 0 
L 0 0 
z
" style="fill:#ffffff;"/>
  </g>
  <g id="axes_1">
   <g id="patch_2">
    <path d="M 47.72 136.24 
L 450 136.24 
L 450 10.8 
L 47.72 10.8 
z
" style="fill:#ffffff;"/>
   </g>
   <g id="patch_3">
    <path clip-path="url(#pa89aec0920)" d="M 66.005455 136.24 
L 95.859258 136.24 
L 95.859258 16.773333 
L 66.005455 16.773333 
z
" style="fill:#1f77b4;"/>
   </g>
   <g id="patch_4">
    <path clip-path="url(#pa89aec0920)" d="M 103.322709 136.24 
L 133.176512 136.24 
L 133.176512 98.243731 
L 103.322709 98.243731 
z
" style="fill:#1f77b4;"/>
   </g>
   <g id="patch_5">
    <path clip-path="url(#pa89aec0920)" d="M 140.639963 136.24 
L 170.493766 136.24 
L 170.493766 112.412491 
L 140.639963 112.412491 
z
" style="fill:#1f77b4;"/>
   </g>
   <g id="patch_6">
    <path clip-path="url(#pa89aec0920)" d="M 177.957217 136.24 
L 207.81102 136.24 
L 207.81102 121.919827 
L 177.957217 121.919827 
z
" style="fill:#1f77b4;"/>
   </g>
   <g id="patch_7">
    <path clip-path="url(#pa89aec0920)" d="M 215.274471 136.24 
L 245.128275 136.24 
L 245.128275 126.259977 
L 215.274471 126.259977 
z
" style="fill:#1f77b4;"/>
   </g>
   <g id="patch_8">
    <path clip-path="url(#pa89aec0920)" d="M 252.591725 136.24 
L 282.445529 136.24 
L 282.445529 132.369596 
L 252.591725 132.369596 
z
" style="fill:#1f77b4;"/>
   </g>
   <g id="patch_9">
    <path clip-path="url(#pa89aec0920)" d="M 289.90898 136.24 
L 319.762783 136.24 
L 319.762783 133.290768 
L 289.90898 133.290768 
z
" style="fill:#1f77b4;"/>
   </g>
   <g id="patch_10">
    <path clip-path="url(#pa89aec0920)" d="M 327.226234 136.24 
L 357.080037 136.24 
L 357.080037 134.306369 
L 327.226234 134.306369 
z
" style="fill:#1f77b4;"/>
   </g>
   <g id="patch_11">
    <path clip-path="url(#pa89aec0920)" d="M 364.543488 136.24 
L 394.397291 136.24 
L 394.397291 134.498696 
L 364.543488 134.498696 
z
" style="fill:#1f77b4;"/>
   </g>
   <g id="patch_12">
    <path clip-path="url(#pa89aec0920)" d="M 401.860742 136.24 
L 431.714545 136.24 
L 431.714545 136.231959 
L 401.860742 136.231959 
z
" style="fill:#1f77b4;"/>
   </g>
   <g id="matplotlib.axis_1">
    <g id="xtick_1">
     <g id="line2d_1">
      <defs>
       <path d="M 0 0 
L 0 3.5 
" id="m9fc06b576d" style="stroke:#000000;stroke-width:0.8;"/>
      </defs>
      <g>
       <use style="stroke:#000000;stroke-width:0.8;" x="80.932356" xlink:href="#m9fc06b576d" y="136.24"/>
      </g>
     </g>
     <g id="text_1">
      <!-- 0 -->
      <defs>
       <path d="M 31.78125 66.40625 
Q 24.171875 66.40625 20.328125 58.90625 
Q 16.5 51.421875 16.5 36.375 
Q 16.5 21.390625 20.328125 13.890625 
Q 24.171875 6.390625 31.78125 6.390625 
Q 39.453125 6.390625 43.28125 13.890625 
Q 47.125 21.390625 47.125 36.375 
Q 47.125 51.421875 43.28125 58.90625 
Q 39.453125 66.40625 31.78125 66.40625 
z
M 31.78125 74.21875 
Q 44.046875 74.21875 50.515625 64.515625 
Q 56.984375 54.828125 56.984375 36.375 
Q 56.984375 17.96875 50.515625 8.265625 
Q 44.046875 -1.421875 31.78125 -1.421875 
Q 19.53125 -1.421875 13.0625 8.265625 
Q 6.59375 17.96875 6.59375 36.375 
Q 6.59375 54.828125 13.0625 64.515625 
Q 19.53125 74.21875 31.78125 74.21875 
z
" id="DejaVuSans-48"/>
      </defs>
      <g transform="translate(77.751106 150.838437)scale(0.1 -0.1)">
       <use xlink:href="#DejaVuSans-48"/>
      </g>
     </g>
    </g>
    <g id="xtick_2">
     <g id="line2d_2">
      <g>
       <use style="stroke:#000000;stroke-width:0.8;" x="118.24961" xlink:href="#m9fc06b576d" y="136.24"/>
      </g>
     </g>
     <g id="text_2">
      <!-- 1 -->
      <defs>
       <path d="M 12.40625 8.296875 
L 28.515625 8.296875 
L 28.515625 63.921875 
L 10.984375 60.40625 
L 10.984375 69.390625 
L 28.421875 72.90625 
L 38.28125 72.90625 
L 38.28125 8.296875 
L 54.390625 8.296875 
L 54.390625 0 
L 12.40625 0 
z
" id="DejaVuSans-49"/>
      </defs>
      <g transform="translate(115.06836 150.838437)scale(0.1 -0.1)">
       <use xlink:href="#DejaVuSans-49"/>
      </g>
     </g>
    </g>
    <g id="xtick_3">
     <g id="line2d_3">
      <g>
       <use style="stroke:#000000;stroke-width:0.8;" x="155.566865" xlink:href="#m9fc06b576d" y="136.24"/>
      </g>
     </g>
     <g id="text_3">
      <!-- 2 -->
      <defs>
       <path d="M 19.1875 8.296875 
L 53.609375 8.296875 
L 53.609375 0 
L 7.328125 0 
L 7.328125 8.296875 
Q 12.9375 14.109375 22.625 23.890625 
Q 32.328125 33.6875 34.8125 36.53125 
Q 39.546875 41.84375 41.421875 45.53125 
Q 43.3125 49.21875 43.3125 52.78125 
Q 43.3125 58.59375 39.234375 62.25 
Q 35.15625 65.921875 28.609375 65.921875 
Q 23.96875 65.921875 18.8125 64.3125 
Q 13.671875 62.703125 7.8125 59.421875 
L 7.8125 69.390625 
Q 13.765625 71.78125 18.9375 73 
Q 24.125 74.21875 28.421875 74.21875 
Q 39.75 74.21875 46.484375 68.546875 
Q 53.21875 62.890625 53.21875 53.421875 
Q 53.21875 48.921875 51.53125 44.890625 
Q 49.859375 40.875 45.40625 35.40625 
Q 44.1875 33.984375 37.640625 27.21875 
Q 31.109375 20.453125 19.1875 8.296875 
z
" id="DejaVuSans-50"/>
      </defs>
      <g transform="translate(152.385615 150.838437)scale(0.1 -0.1)">
       <use xlink:href="#DejaVuSans-50"/>
      </g>
     </g>
    </g>
    <g id="xtick_4">
     <g id="line2d_4">
      <g>
       <use style="stroke:#000000;stroke-width:0.8;" x="192.884119" xlink:href="#m9fc06b576d" y="136.24"/>
      </g>
     </g>
     <g id="text_4">
      <!-- 3 -->
      <defs>
       <path d="M 40.578125 39.3125 
Q 47.65625 37.796875 51.625 33 
Q 55.609375 28.21875 55.609375 21.1875 
Q 55.609375 10.40625 48.1875 4.484375 
Q 40.765625 -1.421875 27.09375 -1.421875 
Q 22.515625 -1.421875 17.65625 -0.515625 
Q 12.796875 0.390625 7.625 2.203125 
L 7.625 11.71875 
Q 11.71875 9.328125 16.59375 8.109375 
Q 21.484375 6.890625 26.8125 6.890625 
Q 36.078125 6.890625 40.9375 10.546875 
Q 45.796875 14.203125 45.796875 21.1875 
Q 45.796875 27.640625 41.28125 31.265625 
Q 36.765625 34.90625 28.71875 34.90625 
L 20.21875 34.90625 
L 20.21875 43.015625 
L 29.109375 43.015625 
Q 36.375 43.015625 40.234375 45.921875 
Q 44.09375 48.828125 44.09375 54.296875 
Q 44.09375 59.90625 40.109375 62.90625 
Q 36.140625 65.921875 28.71875 65.921875 
Q 24.65625 65.921875 20.015625 65.03125 
Q 15.375 64.15625 9.8125 62.3125 
L 9.8125 71.09375 
Q 15.4375 72.65625 20.34375 73.4375 
Q 25.25 74.21875 29.59375 74.21875 
Q 40.828125 74.21875 47.359375 69.109375 
Q 53.90625 64.015625 53.90625 55.328125 
Q 53.90625 49.265625 50.4375 45.09375 
Q 46.96875 40.921875 40.578125 39.3125 
z
" id="DejaVuSans-51"/>
      </defs>
      <g transform="translate(189.702869 150.838437)scale(0.1 -0.1)">
       <use xlink:href="#DejaVuSans-51"/>
      </g>
     </g>
    </g>
    <g id="xtick_5">
     <g id="line2d_5">
      <g>
       <use style="stroke:#000000;stroke-width:0.8;" x="230.201373" xlink:href="#m9fc06b576d" y="136.24"/>
      </g>
     </g>
     <g id="text_5">
      <!-- 4 -->
      <defs>
       <path d="M 37.796875 64.3125 
L 12.890625 25.390625 
L 37.796875 25.390625 
z
M 35.203125 72.90625 
L 47.609375 72.90625 
L 47.609375 25.390625 
L 58.015625 25.390625 
L 58.015625 17.1875 
L 47.609375 17.1875 
L 47.609375 0 
L 37.796875 0 
L 37.796875 17.1875 
L 4.890625 17.1875 
L 4.890625 26.703125 
z
" id="DejaVuSans-52"/>
      </defs>
      <g transform="translate(227.020123 150.838437)scale(0.1 -0.1)">
       <use xlink:href="#DejaVuSans-52"/>
      </g>
     </g>
    </g>
    <g id="xtick_6">
     <g id="line2d_6">
      <g>
       <use style="stroke:#000000;stroke-width:0.8;" x="267.518627" xlink:href="#m9fc06b576d" y="136.24"/>
      </g>
     </g>
     <g id="text_6">
      <!-- 5 -->
      <defs>
       <path d="M 10.796875 72.90625 
L 49.515625 72.90625 
L 49.515625 64.59375 
L 19.828125 64.59375 
L 19.828125 46.734375 
Q 21.96875 47.46875 24.109375 47.828125 
Q 26.265625 48.1875 28.421875 48.1875 
Q 40.625 48.1875 47.75 41.5 
Q 54.890625 34.8125 54.890625 23.390625 
Q 54.890625 11.625 47.5625 5.09375 
Q 40.234375 -1.421875 26.90625 -1.421875 
Q 22.3125 -1.421875 17.546875 -0.640625 
Q 12.796875 0.140625 7.71875 1.703125 
L 7.71875 11.625 
Q 12.109375 9.234375 16.796875 8.0625 
Q 21.484375 6.890625 26.703125 6.890625 
Q 35.15625 6.890625 40.078125 11.328125 
Q 45.015625 15.765625 45.015625 23.390625 
Q 45.015625 31 40.078125 35.4375 
Q 35.15625 39.890625 26.703125 39.890625 
Q 22.75 39.890625 18.8125 39.015625 
Q 14.890625 38.140625 10.796875 36.28125 
z
" id="DejaVuSans-53"/>
      </defs>
      <g transform="translate(264.337377 150.838437)scale(0.1 -0.1)">
       <use xlink:href="#DejaVuSans-53"/>
      </g>
     </g>
    </g>
    <g id="xtick_7">
     <g id="line2d_7">
      <g>
       <use style="stroke:#000000;stroke-width:0.8;" x="304.835881" xlink:href="#m9fc06b576d" y="136.24"/>
      </g>
     </g>
     <g id="text_7">
      <!-- 6 -->
      <defs>
       <path d="M 33.015625 40.375 
Q 26.375 40.375 22.484375 35.828125 
Q 18.609375 31.296875 18.609375 23.390625 
Q 18.609375 15.53125 22.484375 10.953125 
Q 26.375 6.390625 33.015625 6.390625 
Q 39.65625 6.390625 43.53125 10.953125 
Q 47.40625 15.53125 47.40625 23.390625 
Q 47.40625 31.296875 43.53125 35.828125 
Q 39.65625 40.375 33.015625 40.375 
z
M 52.59375 71.296875 
L 52.59375 62.3125 
Q 48.875 64.0625 45.09375 64.984375 
Q 41.3125 65.921875 37.59375 65.921875 
Q 27.828125 65.921875 22.671875 59.328125 
Q 17.53125 52.734375 16.796875 39.40625 
Q 19.671875 43.65625 24.015625 45.921875 
Q 28.375 48.1875 33.59375 48.1875 
Q 44.578125 48.1875 50.953125 41.515625 
Q 57.328125 34.859375 57.328125 23.390625 
Q 57.328125 12.15625 50.6875 5.359375 
Q 44.046875 -1.421875 33.015625 -1.421875 
Q 20.359375 -1.421875 13.671875 8.265625 
Q 6.984375 17.96875 6.984375 36.375 
Q 6.984375 53.65625 15.1875 63.9375 
Q 23.390625 74.21875 37.203125 74.21875 
Q 40.921875 74.21875 44.703125 73.484375 
Q 48.484375 72.75 52.59375 71.296875 
z
" id="DejaVuSans-54"/>
      </defs>
      <g transform="translate(301.654631 150.838437)scale(0.1 -0.1)">
       <use xlink:href="#DejaVuSans-54"/>
      </g>
     </g>
    </g>
    <g id="xtick_8">
     <g id="line2d_8">
      <g>
       <use style="stroke:#000000;stroke-width:0.8;" x="342.153135" xlink:href="#m9fc06b576d" y="136.24"/>
      </g>
     </g>
     <g id="text_8">
      <!-- 7 -->
      <defs>
       <path d="M 8.203125 72.90625 
L 55.078125 72.90625 
L 55.078125 68.703125 
L 28.609375 0 
L 18.3125 0 
L 43.21875 64.59375 
L 8.203125 64.59375 
z
" id="DejaVuSans-55"/>
      </defs>
      <g transform="translate(338.971885 150.838437)scale(0.1 -0.1)">
       <use xlink:href="#DejaVuSans-55"/>
      </g>
     </g>
    </g>
    <g id="xtick_9">
     <g id="line2d_9">
      <g>
       <use style="stroke:#000000;stroke-width:0.8;" x="379.47039" xlink:href="#m9fc06b576d" y="136.24"/>
      </g>
     </g>
     <g id="text_9">
      <!-- 8 -->
      <defs>
       <path d="M 31.78125 34.625 
Q 24.75 34.625 20.71875 30.859375 
Q 16.703125 27.09375 16.703125 20.515625 
Q 16.703125 13.921875 20.71875 10.15625 
Q 24.75 6.390625 31.78125 6.390625 
Q 38.8125 6.390625 42.859375 10.171875 
Q 46.921875 13.96875 46.921875 20.515625 
Q 46.921875 27.09375 42.890625 30.859375 
Q 38.875 34.625 31.78125 34.625 
z
M 21.921875 38.8125 
Q 15.578125 40.375 12.03125 44.71875 
Q 8.5 49.078125 8.5 55.328125 
Q 8.5 64.0625 14.71875 69.140625 
Q 20.953125 74.21875 31.78125 74.21875 
Q 42.671875 74.21875 48.875 69.140625 
Q 55.078125 64.0625 55.078125 55.328125 
Q 55.078125 49.078125 51.53125 44.71875 
Q 48 40.375 41.703125 38.8125 
Q 48.828125 37.15625 52.796875 32.3125 
Q 56.78125 27.484375 56.78125 20.515625 
Q 56.78125 9.90625 50.3125 4.234375 
Q 43.84375 -1.421875 31.78125 -1.421875 
Q 19.734375 -1.421875 13.25 4.234375 
Q 6.78125 9.90625 6.78125 20.515625 
Q 6.78125 27.484375 10.78125 32.3125 
Q 14.796875 37.15625 21.921875 38.8125 
z
M 18.3125 54.390625 
Q 18.3125 48.734375 21.84375 45.5625 
Q 25.390625 42.390625 31.78125 42.390625 
Q 38.140625 42.390625 41.71875 45.5625 
Q 45.3125 48.734375 45.3125 54.390625 
Q 45.3125 60.0625 41.71875 63.234375 
Q 38.140625 66.40625 31.78125 66.40625 
Q 25.390625 66.40625 21.84375 63.234375 
Q 18.3125 60.0625 18.3125 54.390625 
z
" id="DejaVuSans-56"/>
      </defs>
      <g transform="translate(376.28914 150.838437)scale(0.1 -0.1)">
       <use xlink:href="#DejaVuSans-56"/>
      </g>
     </g>
    </g>
    <g id="xtick_10">
     <g id="line2d_10">
      <g>
       <use style="stroke:#000000;stroke-width:0.8;" x="416.787644" xlink:href="#m9fc06b576d" y="136.24"/>
      </g>
     </g>
     <g id="text_10">
      <!-- 9 -->
      <defs>
       <path d="M 10.984375 1.515625 
L 10.984375 10.5 
Q 14.703125 8.734375 18.5 7.8125 
Q 22.3125 6.890625 25.984375 6.890625 
Q 35.75 6.890625 40.890625 13.453125 
Q 46.046875 20.015625 46.78125 33.40625 
Q 43.953125 29.203125 39.59375 26.953125 
Q 35.25 24.703125 29.984375 24.703125 
Q 19.046875 24.703125 12.671875 31.3125 
Q 6.296875 37.9375 6.296875 49.421875 
Q 6.296875 60.640625 12.9375 67.421875 
Q 19.578125 74.21875 30.609375 74.21875 
Q 43.265625 74.21875 49.921875 64.515625 
Q 56.59375 54.828125 56.59375 36.375 
Q 56.59375 19.140625 48.40625 8.859375 
Q 40.234375 -1.421875 26.421875 -1.421875 
Q 22.703125 -1.421875 18.890625 -0.6875 
Q 15.09375 0.046875 10.984375 1.515625 
z
M 30.609375 32.421875 
Q 37.25 32.421875 41.125 36.953125 
Q 45.015625 41.5 45.015625 49.421875 
Q 45.015625 57.28125 41.125 61.84375 
Q 37.25 66.40625 30.609375 66.40625 
Q 23.96875 66.40625 20.09375 61.84375 
Q 16.21875 57.28125 16.21875 49.421875 
Q 16.21875 41.5 20.09375 36.953125 
Q 23.96875 32.421875 30.609375 32.421875 
z
" id="DejaVuSans-57"/>
      </defs>
      <g transform="translate(413.606394 150.838437)scale(0.1 -0.1)">
       <use xlink:href="#DejaVuSans-57"/>
      </g>
     </g>
    </g>
    <g id="text_11">
     <!-- PCA features -->
     <defs>
      <path d="M 19.671875 64.796875 
L 19.671875 37.40625 
L 32.078125 37.40625 
Q 38.96875 37.40625 42.71875 40.96875 
Q 46.484375 44.53125 46.484375 51.125 
Q 46.484375 57.671875 42.71875 61.234375 
Q 38.96875 64.796875 32.078125 64.796875 
z
M 9.8125 72.90625 
L 32.078125 72.90625 
Q 44.34375 72.90625 50.609375 67.359375 
Q 56.890625 61.8125 56.890625 51.125 
Q 56.890625 40.328125 50.609375 34.8125 
Q 44.34375 29.296875 32.078125 29.296875 
L 19.671875 29.296875 
L 19.671875 0 
L 9.8125 0 
z
" id="DejaVuSans-80"/>
      <path d="M 64.40625 67.28125 
L 64.40625 56.890625 
Q 59.421875 61.53125 53.78125 63.8125 
Q 48.140625 66.109375 41.796875 66.109375 
Q 29.296875 66.109375 22.65625 58.46875 
Q 16.015625 50.828125 16.015625 36.375 
Q 16.015625 21.96875 22.65625 14.328125 
Q 29.296875 6.6875 41.796875 6.6875 
Q 48.140625 6.6875 53.78125 8.984375 
Q 59.421875 11.28125 64.40625 15.921875 
L 64.40625 5.609375 
Q 59.234375 2.09375 53.4375 0.328125 
Q 47.65625 -1.421875 41.21875 -1.421875 
Q 24.65625 -1.421875 15.125 8.703125 
Q 5.609375 18.84375 5.609375 36.375 
Q 5.609375 53.953125 15.125 64.078125 
Q 24.65625 74.21875 41.21875 74.21875 
Q 47.75 74.21875 53.53125 72.484375 
Q 59.328125 70.75 64.40625 67.28125 
z
" id="DejaVuSans-67"/>
      <path d="M 34.1875 63.1875 
L 20.796875 26.90625 
L 47.609375 26.90625 
z
M 28.609375 72.90625 
L 39.796875 72.90625 
L 67.578125 0 
L 57.328125 0 
L 50.6875 18.703125 
L 17.828125 18.703125 
L 11.1875 0 
L 0.78125 0 
z
" id="DejaVuSans-65"/>
      <path id="DejaVuSans-32"/>
      <path d="M 37.109375 75.984375 
L 37.109375 68.5 
L 28.515625 68.5 
Q 23.6875 68.5 21.796875 66.546875 
Q 19.921875 64.59375 19.921875 59.515625 
L 19.921875 54.6875 
L 34.71875 54.6875 
L 34.71875 47.703125 
L 19.921875 47.703125 
L 19.921875 0 
L 10.890625 0 
L 10.890625 47.703125 
L 2.296875 47.703125 
L 2.296875 54.6875 
L 10.890625 54.6875 
L 10.890625 58.5 
Q 10.890625 67.625 15.140625 71.796875 
Q 19.390625 75.984375 28.609375 75.984375 
z
" id="DejaVuSans-102"/>
      <path d="M 56.203125 29.59375 
L 56.203125 25.203125 
L 14.890625 25.203125 
Q 15.484375 15.921875 20.484375 11.0625 
Q 25.484375 6.203125 34.421875 6.203125 
Q 39.59375 6.203125 44.453125 7.46875 
Q 49.3125 8.734375 54.109375 11.28125 
L 54.109375 2.78125 
Q 49.265625 0.734375 44.1875 -0.34375 
Q 39.109375 -1.421875 33.890625 -1.421875 
Q 20.796875 -1.421875 13.15625 6.1875 
Q 5.515625 13.8125 5.515625 26.8125 
Q 5.515625 40.234375 12.765625 48.109375 
Q 20.015625 56 32.328125 56 
Q 43.359375 56 49.78125 48.890625 
Q 56.203125 41.796875 56.203125 29.59375 
z
M 47.21875 32.234375 
Q 47.125 39.59375 43.09375 43.984375 
Q 39.0625 48.390625 32.421875 48.390625 
Q 24.90625 48.390625 20.390625 44.140625 
Q 15.875 39.890625 15.1875 32.171875 
z
" id="DejaVuSans-101"/>
      <path d="M 34.28125 27.484375 
Q 23.390625 27.484375 19.1875 25 
Q 14.984375 22.515625 14.984375 16.5 
Q 14.984375 11.71875 18.140625 8.90625 
Q 21.296875 6.109375 26.703125 6.109375 
Q 34.1875 6.109375 38.703125 11.40625 
Q 43.21875 16.703125 43.21875 25.484375 
L 43.21875 27.484375 
z
M 52.203125 31.203125 
L 52.203125 0 
L 43.21875 0 
L 43.21875 8.296875 
Q 40.140625 3.328125 35.546875 0.953125 
Q 30.953125 -1.421875 24.3125 -1.421875 
Q 15.921875 -1.421875 10.953125 3.296875 
Q 6 8.015625 6 15.921875 
Q 6 25.140625 12.171875 29.828125 
Q 18.359375 34.515625 30.609375 34.515625 
L 43.21875 34.515625 
L 43.21875 35.40625 
Q 43.21875 41.609375 39.140625 45 
Q 35.0625 48.390625 27.6875 48.390625 
Q 23 48.390625 18.546875 47.265625 
Q 14.109375 46.140625 10.015625 43.890625 
L 10.015625 52.203125 
Q 14.9375 54.109375 19.578125 55.046875 
Q 24.21875 56 28.609375 56 
Q 40.484375 56 46.34375 49.84375 
Q 52.203125 43.703125 52.203125 31.203125 
z
" id="DejaVuSans-97"/>
      <path d="M 18.3125 70.21875 
L 18.3125 54.6875 
L 36.8125 54.6875 
L 36.8125 47.703125 
L 18.3125 47.703125 
L 18.3125 18.015625 
Q 18.3125 11.328125 20.140625 9.421875 
Q 21.96875 7.515625 27.59375 7.515625 
L 36.8125 7.515625 
L 36.8125 0 
L 27.59375 0 
Q 17.1875 0 13.234375 3.875 
Q 9.28125 7.765625 9.28125 18.015625 
L 9.28125 47.703125 
L 2.6875 47.703125 
L 2.6875 54.6875 
L 9.28125 54.6875 
L 9.28125 70.21875 
z
" id="DejaVuSans-116"/>
      <path d="M 8.5 21.578125 
L 8.5 54.6875 
L 17.484375 54.6875 
L 17.484375 21.921875 
Q 17.484375 14.15625 20.5 10.265625 
Q 23.53125 6.390625 29.59375 6.390625 
Q 36.859375 6.390625 41.078125 11.03125 
Q 45.3125 15.671875 45.3125 23.6875 
L 45.3125 54.6875 
L 54.296875 54.6875 
L 54.296875 0 
L 45.3125 0 
L 45.3125 8.40625 
Q 42.046875 3.421875 37.71875 1 
Q 33.40625 -1.421875 27.6875 -1.421875 
Q 18.265625 -1.421875 13.375 4.4375 
Q 8.5 10.296875 8.5 21.578125 
z
M 31.109375 56 
z
" id="DejaVuSans-117"/>
      <path d="M 41.109375 46.296875 
Q 39.59375 47.171875 37.8125 47.578125 
Q 36.03125 48 33.890625 48 
Q 26.265625 48 22.1875 43.046875 
Q 18.109375 38.09375 18.109375 28.8125 
L 18.109375 0 
L 9.078125 0 
L 9.078125 54.6875 
L 18.109375 54.6875 
L 18.109375 46.1875 
Q 20.953125 51.171875 25.484375 53.578125 
Q 30.03125 56 36.53125 56 
Q 37.453125 56 38.578125 55.875 
Q 39.703125 55.765625 41.0625 55.515625 
z
" id="DejaVuSans-114"/>
      <path d="M 44.28125 53.078125 
L 44.28125 44.578125 
Q 40.484375 46.53125 36.375 47.5 
Q 32.28125 48.484375 27.875 48.484375 
Q 21.1875 48.484375 17.84375 46.4375 
Q 14.5 44.390625 14.5 40.28125 
Q 14.5 37.15625 16.890625 35.375 
Q 19.28125 33.59375 26.515625 31.984375 
L 29.59375 31.296875 
Q 39.15625 29.25 43.1875 25.515625 
Q 47.21875 21.78125 47.21875 15.09375 
Q 47.21875 7.46875 41.1875 3.015625 
Q 35.15625 -1.421875 24.609375 -1.421875 
Q 20.21875 -1.421875 15.453125 -0.5625 
Q 10.6875 0.296875 5.421875 2 
L 5.421875 11.28125 
Q 10.40625 8.6875 15.234375 7.390625 
Q 20.0625 6.109375 24.8125 6.109375 
Q 31.15625 6.109375 34.5625 8.28125 
Q 37.984375 10.453125 37.984375 14.40625 
Q 37.984375 18.0625 35.515625 20.015625 
Q 33.0625 21.96875 24.703125 23.78125 
L 21.578125 24.515625 
Q 13.234375 26.265625 9.515625 29.90625 
Q 5.8125 33.546875 5.8125 39.890625 
Q 5.8125 47.609375 11.28125 51.796875 
Q 16.75 56 26.8125 56 
Q 31.78125 56 36.171875 55.265625 
Q 40.578125 54.546875 44.28125 53.078125 
z
" id="DejaVuSans-115"/>
     </defs>
     <g transform="translate(216.579531 164.516562)scale(0.1 -0.1)">
      <use xlink:href="#DejaVuSans-80"/>
      <use x="60.302734" xlink:href="#DejaVuSans-67"/>
      <use x="130.126953" xlink:href="#DejaVuSans-65"/>
      <use x="198.535156" xlink:href="#DejaVuSans-32"/>
      <use x="230.322266" xlink:href="#DejaVuSans-102"/>
      <use x="265.527344" xlink:href="#DejaVuSans-101"/>
      <use x="327.050781" xlink:href="#DejaVuSans-97"/>
      <use x="388.330078" xlink:href="#DejaVuSans-116"/>
      <use x="427.539062" xlink:href="#DejaVuSans-117"/>
      <use x="490.917969" xlink:href="#DejaVuSans-114"/>
      <use x="532" xlink:href="#DejaVuSans-101"/>
      <use x="593.523438" xlink:href="#DejaVuSans-115"/>
     </g>
    </g>
   </g>
   <g id="matplotlib.axis_2">
    <g id="ytick_1">
     <g id="line2d_11">
      <defs>
       <path d="M 0 0 
L -3.5 0 
" id="m3801fbabe3" style="stroke:#000000;stroke-width:0.8;"/>
      </defs>
      <g>
       <use style="stroke:#000000;stroke-width:0.8;" x="47.72" xlink:href="#m3801fbabe3" y="136.24"/>
      </g>
     </g>
     <g id="text_12">
      <!-- 0.0 -->
      <defs>
       <path d="M 10.6875 12.40625 
L 21 12.40625 
L 21 0 
L 10.6875 0 
z
" id="DejaVuSans-46"/>
      </defs>
      <g transform="translate(24.816875 140.039219)scale(0.1 -0.1)">
       <use xlink:href="#DejaVuSans-48"/>
       <use x="63.623047" xlink:href="#DejaVuSans-46"/>
       <use x="95.410156" xlink:href="#DejaVuSans-48"/>
      </g>
     </g>
    </g>
    <g id="ytick_2">
     <g id="line2d_12">
      <g>
       <use style="stroke:#000000;stroke-width:0.8;" x="47.72" xlink:href="#m3801fbabe3" y="114.630675"/>
      </g>
     </g>
     <g id="text_13">
      <!-- 0.1 -->
      <g transform="translate(24.816875 118.429893)scale(0.1 -0.1)">
       <use xlink:href="#DejaVuSans-48"/>
       <use x="63.623047" xlink:href="#DejaVuSans-46"/>
       <use x="95.410156" xlink:href="#DejaVuSans-49"/>
      </g>
     </g>
    </g>
    <g id="ytick_3">
     <g id="line2d_13">
      <g>
       <use style="stroke:#000000;stroke-width:0.8;" x="47.72" xlink:href="#m3801fbabe3" y="93.021349"/>
      </g>
     </g>
     <g id="text_14">
      <!-- 0.2 -->
      <g transform="translate(24.816875 96.820568)scale(0.1 -0.1)">
       <use xlink:href="#DejaVuSans-48"/>
       <use x="63.623047" xlink:href="#DejaVuSans-46"/>
       <use x="95.410156" xlink:href="#DejaVuSans-50"/>
      </g>
     </g>
    </g>
    <g id="ytick_4">
     <g id="line2d_14">
      <g>
       <use style="stroke:#000000;stroke-width:0.8;" x="47.72" xlink:href="#m3801fbabe3" y="71.412024"/>
      </g>
     </g>
     <g id="text_15">
      <!-- 0.3 -->
      <g transform="translate(24.816875 75.211243)scale(0.1 -0.1)">
       <use xlink:href="#DejaVuSans-48"/>
       <use x="63.623047" xlink:href="#DejaVuSans-46"/>
       <use x="95.410156" xlink:href="#DejaVuSans-51"/>
      </g>
     </g>
    </g>
    <g id="ytick_5">
     <g id="line2d_15">
      <g>
       <use style="stroke:#000000;stroke-width:0.8;" x="47.72" xlink:href="#m3801fbabe3" y="49.802699"/>
      </g>
     </g>
     <g id="text_16">
      <!-- 0.4 -->
      <g transform="translate(24.816875 53.601917)scale(0.1 -0.1)">
       <use xlink:href="#DejaVuSans-48"/>
       <use x="63.623047" xlink:href="#DejaVuSans-46"/>
       <use x="95.410156" xlink:href="#DejaVuSans-52"/>
      </g>
     </g>
    </g>
    <g id="ytick_6">
     <g id="line2d_16">
      <g>
       <use style="stroke:#000000;stroke-width:0.8;" x="47.72" xlink:href="#m3801fbabe3" y="28.193373"/>
      </g>
     </g>
     <g id="text_17">
      <!-- 0.5 -->
      <g transform="translate(24.816875 31.992592)scale(0.1 -0.1)">
       <use xlink:href="#DejaVuSans-48"/>
       <use x="63.623047" xlink:href="#DejaVuSans-46"/>
       <use x="95.410156" xlink:href="#DejaVuSans-53"/>
      </g>
     </g>
    </g>
    <g id="text_18">
     <!-- variables % -->
     <defs>
      <path d="M 2.984375 54.6875 
L 12.5 54.6875 
L 29.59375 8.796875 
L 46.6875 54.6875 
L 56.203125 54.6875 
L 35.6875 0 
L 23.484375 0 
z
" id="DejaVuSans-118"/>
      <path d="M 9.421875 54.6875 
L 18.40625 54.6875 
L 18.40625 0 
L 9.421875 0 
z
M 9.421875 75.984375 
L 18.40625 75.984375 
L 18.40625 64.59375 
L 9.421875 64.59375 
z
" id="DejaVuSans-105"/>
      <path d="M 48.6875 27.296875 
Q 48.6875 37.203125 44.609375 42.84375 
Q 40.53125 48.484375 33.40625 48.484375 
Q 26.265625 48.484375 22.1875 42.84375 
Q 18.109375 37.203125 18.109375 27.296875 
Q 18.109375 17.390625 22.1875 11.75 
Q 26.265625 6.109375 33.40625 6.109375 
Q 40.53125 6.109375 44.609375 11.75 
Q 48.6875 17.390625 48.6875 27.296875 
z
M 18.109375 46.390625 
Q 20.953125 51.265625 25.265625 53.625 
Q 29.59375 56 35.59375 56 
Q 45.5625 56 51.78125 48.09375 
Q 58.015625 40.1875 58.015625 27.296875 
Q 58.015625 14.40625 51.78125 6.484375 
Q 45.5625 -1.421875 35.59375 -1.421875 
Q 29.59375 -1.421875 25.265625 0.953125 
Q 20.953125 3.328125 18.109375 8.203125 
L 18.109375 0 
L 9.078125 0 
L 9.078125 75.984375 
L 18.109375 75.984375 
z
" id="DejaVuSans-98"/>
      <path d="M 9.421875 75.984375 
L 18.40625 75.984375 
L 18.40625 0 
L 9.421875 0 
z
" id="DejaVuSans-108"/>
      <path d="M 72.703125 32.078125 
Q 68.453125 32.078125 66.03125 28.46875 
Q 63.625 24.859375 63.625 18.40625 
Q 63.625 12.0625 66.03125 8.421875 
Q 68.453125 4.78125 72.703125 4.78125 
Q 76.859375 4.78125 79.265625 8.421875 
Q 81.6875 12.0625 81.6875 18.40625 
Q 81.6875 24.8125 79.265625 28.4375 
Q 76.859375 32.078125 72.703125 32.078125 
z
M 72.703125 38.28125 
Q 80.421875 38.28125 84.953125 32.90625 
Q 89.5 27.546875 89.5 18.40625 
Q 89.5 9.28125 84.9375 3.921875 
Q 80.375 -1.421875 72.703125 -1.421875 
Q 64.890625 -1.421875 60.34375 3.921875 
Q 55.8125 9.28125 55.8125 18.40625 
Q 55.8125 27.59375 60.375 32.9375 
Q 64.9375 38.28125 72.703125 38.28125 
z
M 22.3125 68.015625 
Q 18.109375 68.015625 15.6875 64.375 
Q 13.28125 60.75 13.28125 54.390625 
Q 13.28125 47.953125 15.671875 44.328125 
Q 18.0625 40.71875 22.3125 40.71875 
Q 26.5625 40.71875 28.96875 44.328125 
Q 31.390625 47.953125 31.390625 54.390625 
Q 31.390625 60.6875 28.953125 64.34375 
Q 26.515625 68.015625 22.3125 68.015625 
z
M 66.40625 74.21875 
L 74.21875 74.21875 
L 28.609375 -1.421875 
L 20.796875 -1.421875 
z
M 22.3125 74.21875 
Q 30.03125 74.21875 34.609375 68.875 
Q 39.203125 63.53125 39.203125 54.390625 
Q 39.203125 45.171875 34.640625 39.84375 
Q 30.078125 34.515625 22.3125 34.515625 
Q 14.546875 34.515625 10.03125 39.859375 
Q 5.515625 45.21875 5.515625 54.390625 
Q 5.515625 63.484375 10.046875 68.84375 
Q 14.59375 74.21875 22.3125 74.21875 
z
" id="DejaVuSans-37"/>
     </defs>
     <g transform="translate(18.737188 102.636406)rotate(-90)scale(0.1 -0.1)">
      <use xlink:href="#DejaVuSans-118"/>
      <use x="59.179688" xlink:href="#DejaVuSans-97"/>
      <use x="120.458984" xlink:href="#DejaVuSans-114"/>
      <use x="161.572266" xlink:href="#DejaVuSans-105"/>
      <use x="189.355469" xlink:href="#DejaVuSans-97"/>
      <use x="250.634766" xlink:href="#DejaVuSans-98"/>
      <use x="314.111328" xlink:href="#DejaVuSans-108"/>
      <use x="341.894531" xlink:href="#DejaVuSans-101"/>
      <use x="403.417969" xlink:href="#DejaVuSans-115"/>
      <use x="455.517578" xlink:href="#DejaVuSans-32"/>
      <use x="487.304688" xlink:href="#DejaVuSans-37"/>
     </g>
    </g>
   </g>
   <g id="patch_13">
    <path d="M 47.72 136.24 
L 47.72 10.8 
" style="fill:none;stroke:#000000;stroke-linecap:square;stroke-linejoin:miter;stroke-width:0.8;"/>
   </g>
   <g id="patch_14">
    <path d="M 450 136.24 
L 450 10.8 
" style="fill:none;stroke:#000000;stroke-linecap:square;stroke-linejoin:miter;stroke-width:0.8;"/>
   </g>
   <g id="patch_15">
    <path d="M 47.72 136.24 
L 450 136.24 
" style="fill:none;stroke:#000000;stroke-linecap:square;stroke-linejoin:miter;stroke-width:0.8;"/>
   </g>
   <g id="patch_16">
    <path d="M 47.72 10.8 
L 450 10.8 
" style="fill:none;stroke:#000000;stroke-linecap:square;stroke-linejoin:miter;stroke-width:0.8;"/>
   </g>
  </g>
  <g id="axes_2">
   <g id="patch_17">
    <path d="M 47.72 303.64 
L 450 303.64 
L 450 178.2 
L 47.72 178.2 
z
" style="fill:#ffffff;"/>
   </g>
   <g id="PathCollection_1">
    <defs>
     <path d="M 0 3 
C 0.795609 3 1.55874 2.683901 2.12132 2.12132 
C 2.683901 1.55874 3 0.795609 3 0 
C 3 -0.795609 2.683901 -1.55874 2.12132 -2.12132 
C 1.55874 -2.683901 0.795609 -3 0 -3 
C -0.795609 -3 -1.55874 -2.683901 -2.12132 -2.12132 
C -2.683901 -1.55874 -3 -0.795609 -3 0 
C -3 0.795609 -2.683901 1.55874 -2.12132 2.12132 
C -1.55874 2.683901 -0.795609 3 0 3 
z
" id="m0043953e08" style="stroke:#1f77b4;"/>
    </defs>
    <g clip-path="url(#p8554b05b33)">
     <use style="fill:#1f77b4;stroke:#1f77b4;" x="160.93001" xlink:href="#m0043953e08" y="225.158457"/>
     <use style="fill:#1f77b4;stroke:#1f77b4;" x="375.545058" xlink:href="#m0043953e08" y="247.419529"/>
     <use style="fill:#1f77b4;stroke:#1f77b4;" x="202.676393" xlink:href="#m0043953e08" y="256.4192"/>
     <use style="fill:#1f77b4;stroke:#1f77b4;" x="125.356775" xlink:href="#m0043953e08" y="251.741263"/>
     <use style="fill:#1f77b4;stroke:#1f77b4;" x="84.650715" xlink:href="#m0043953e08" y="254.613893"/>
     <use style="fill:#1f77b4;stroke:#1f77b4;" x="349.665976" xlink:href="#m0043953e08" y="260.527694"/>
     <use style="fill:#1f77b4;stroke:#1f77b4;" x="381.598737" xlink:href="#m0043953e08" y="251.916755"/>
     <use style="fill:#1f77b4;stroke:#1f77b4;" x="152.077787" xlink:href="#m0043953e08" y="259.167024"/>
     <use style="fill:#1f77b4;stroke:#1f77b4;" x="227.372709" xlink:href="#m0043953e08" y="270.523936"/>
     <use style="fill:#1f77b4;stroke:#1f77b4;" x="124.668551" xlink:href="#m0043953e08" y="260.540727"/>
     <use style="fill:#1f77b4;stroke:#1f77b4;" x="182.733632" xlink:href="#m0043953e08" y="278.164574"/>
     <use style="fill:#1f77b4;stroke:#1f77b4;" x="254.402706" xlink:href="#m0043953e08" y="234.392467"/>
     <use style="fill:#1f77b4;stroke:#1f77b4;" x="231.01989" xlink:href="#m0043953e08" y="272.277722"/>
     <use style="fill:#1f77b4;stroke:#1f77b4;" x="217.365579" xlink:href="#m0043953e08" y="261.031865"/>
     <use style="fill:#1f77b4;stroke:#1f77b4;" x="245.82062" xlink:href="#m0043953e08" y="232.206317"/>
     <use style="fill:#1f77b4;stroke:#1f77b4;" x="145.643773" xlink:href="#m0043953e08" y="272.213484"/>
     <use style="fill:#1f77b4;stroke:#1f77b4;" x="381.250001" xlink:href="#m0043953e08" y="219.897254"/>
     <use style="fill:#1f77b4;stroke:#1f77b4;" x="398.271047" xlink:href="#m0043953e08" y="212.451182"/>
     <use style="fill:#1f77b4;stroke:#1f77b4;" x="302.770512" xlink:href="#m0043953e08" y="218.816624"/>
     <use style="fill:#1f77b4;stroke:#1f77b4;" x="363.8867" xlink:href="#m0043953e08" y="288.586312"/>
     <use style="fill:#1f77b4;stroke:#1f77b4;" x="254.664474" xlink:href="#m0043953e08" y="212.332159"/>
     <use style="fill:#1f77b4;stroke:#1f77b4;" x="128.882657" xlink:href="#m0043953e08" y="267.809872"/>
     <use style="fill:#1f77b4;stroke:#1f77b4;" x="250.499933" xlink:href="#m0043953e08" y="248.040467"/>
     <use style="fill:#1f77b4;stroke:#1f77b4;" x="160.530917" xlink:href="#m0043953e08" y="236.402325"/>
     <use style="fill:#1f77b4;stroke:#1f77b4;" x="368.943906" xlink:href="#m0043953e08" y="258.28064"/>
     <use style="fill:#1f77b4;stroke:#1f77b4;" x="208.519941" xlink:href="#m0043953e08" y="263.582734"/>
     <use style="fill:#1f77b4;stroke:#1f77b4;" x="169.540036" xlink:href="#m0043953e08" y="273.855747"/>
     <use style="fill:#1f77b4;stroke:#1f77b4;" x="256.490833" xlink:href="#m0043953e08" y="213.18744"/>
     <use style="fill:#1f77b4;stroke:#1f77b4;" x="345.908278" xlink:href="#m0043953e08" y="248.0007"/>
     <use style="fill:#1f77b4;stroke:#1f77b4;" x="344.915298" xlink:href="#m0043953e08" y="269.365006"/>
     <use style="fill:#1f77b4;stroke:#1f77b4;" x="284.000178" xlink:href="#m0043953e08" y="226.572182"/>
     <use style="fill:#1f77b4;stroke:#1f77b4;" x="236.005366" xlink:href="#m0043953e08" y="254.030315"/>
     <use style="fill:#1f77b4;stroke:#1f77b4;" x="322.505787" xlink:href="#m0043953e08" y="223.473275"/>
     <use style="fill:#1f77b4;stroke:#1f77b4;" x="200.657642" xlink:href="#m0043953e08" y="260.182798"/>
     <use style="fill:#1f77b4;stroke:#1f77b4;" x="261.500628" xlink:href="#m0043953e08" y="236.042768"/>
     <use style="fill:#1f77b4;stroke:#1f77b4;" x="180.285956" xlink:href="#m0043953e08" y="297.60507"/>
     <use style="fill:#1f77b4;stroke:#1f77b4;" x="78.021409" xlink:href="#m0043953e08" y="249.181558"/>
     <use style="fill:#1f77b4;stroke:#1f77b4;" x="75.247492" xlink:href="#m0043953e08" y="255.394953"/>
     <use style="fill:#1f77b4;stroke:#1f77b4;" x="227.71576" xlink:href="#m0043953e08" y="252.45547"/>
     <use style="fill:#1f77b4;stroke:#1f77b4;" x="202.444843" xlink:href="#m0043953e08" y="289.358283"/>
     <use style="fill:#1f77b4;stroke:#1f77b4;" x="349.944633" xlink:href="#m0043953e08" y="260.015004"/>
     <use style="fill:#1f77b4;stroke:#1f77b4;" x="149.610283" xlink:href="#m0043953e08" y="242.548559"/>
     <use style="fill:#1f77b4;stroke:#1f77b4;" x="288.641956" xlink:href="#m0043953e08" y="245.891126"/>
     <use style="fill:#1f77b4;stroke:#1f77b4;" x="173.774685" xlink:href="#m0043953e08" y="250.237817"/>
     <use style="fill:#1f77b4;stroke:#1f77b4;" x="219.497089" xlink:href="#m0043953e08" y="268.286361"/>
     <use style="fill:#1f77b4;stroke:#1f77b4;" x="251.443851" xlink:href="#m0043953e08" y="241.709496"/>
     <use style="fill:#1f77b4;stroke:#1f77b4;" x="146.242957" xlink:href="#m0043953e08" y="202.159117"/>
     <use style="fill:#1f77b4;stroke:#1f77b4;" x="360.385008" xlink:href="#m0043953e08" y="248.446269"/>
     <use style="fill:#1f77b4;stroke:#1f77b4;" x="176.672185" xlink:href="#m0043953e08" y="275.724004"/>
     <use style="fill:#1f77b4;stroke:#1f77b4;" x="351.611039" xlink:href="#m0043953e08" y="277.297795"/>
     <use style="fill:#1f77b4;stroke:#1f77b4;" x="162.743096" xlink:href="#m0043953e08" y="227.581615"/>
     <use style="fill:#1f77b4;stroke:#1f77b4;" x="131.849354" xlink:href="#m0043953e08" y="218.336941"/>
     <use style="fill:#1f77b4;stroke:#1f77b4;" x="270.925422" xlink:href="#m0043953e08" y="218.016814"/>
     <use style="fill:#1f77b4;stroke:#1f77b4;" x="352.338454" xlink:href="#m0043953e08" y="247.364302"/>
     <use style="fill:#1f77b4;stroke:#1f77b4;" x="288.290426" xlink:href="#m0043953e08" y="224.073926"/>
     <use style="fill:#1f77b4;stroke:#1f77b4;" x="116.045752" xlink:href="#m0043953e08" y="271.444476"/>
     <use style="fill:#1f77b4;stroke:#1f77b4;" x="352.301769" xlink:href="#m0043953e08" y="261.890828"/>
     <use style="fill:#1f77b4;stroke:#1f77b4;" x="181.282528" xlink:href="#m0043953e08" y="266.133317"/>
     <use style="fill:#1f77b4;stroke:#1f77b4;" x="349.725988" xlink:href="#m0043953e08" y="214.018444"/>
     <use style="fill:#1f77b4;stroke:#1f77b4;" x="267.101825" xlink:href="#m0043953e08" y="243.571488"/>
     <use style="fill:#1f77b4;stroke:#1f77b4;" x="188.679103" xlink:href="#m0043953e08" y="240.312618"/>
     <use style="fill:#1f77b4;stroke:#1f77b4;" x="191.997549" xlink:href="#m0043953e08" y="199.059937"/>
     <use style="fill:#1f77b4;stroke:#1f77b4;" x="174.926882" xlink:href="#m0043953e08" y="249.740228"/>
     <use style="fill:#1f77b4;stroke:#1f77b4;" x="230.535443" xlink:href="#m0043953e08" y="269.40198"/>
     <use style="fill:#1f77b4;stroke:#1f77b4;" x="123.477452" xlink:href="#m0043953e08" y="217.63814"/>
     <use style="fill:#1f77b4;stroke:#1f77b4;" x="369.234833" xlink:href="#m0043953e08" y="233.104735"/>
     <use style="fill:#1f77b4;stroke:#1f77b4;" x="323.906044" xlink:href="#m0043953e08" y="222.679743"/>
     <use style="fill:#1f77b4;stroke:#1f77b4;" x="206.845661" xlink:href="#m0043953e08" y="260.518779"/>
     <use style="fill:#1f77b4;stroke:#1f77b4;" x="188.570377" xlink:href="#m0043953e08" y="268.636951"/>
     <use style="fill:#1f77b4;stroke:#1f77b4;" x="170.133523" xlink:href="#m0043953e08" y="254.072022"/>
     <use style="fill:#1f77b4;stroke:#1f77b4;" x="110.353815" xlink:href="#m0043953e08" y="234.935801"/>
     <use style="fill:#1f77b4;stroke:#1f77b4;" x="120.60779" xlink:href="#m0043953e08" y="220.643313"/>
     <use style="fill:#1f77b4;stroke:#1f77b4;" x="305.55566" xlink:href="#m0043953e08" y="284.439387"/>
     <use style="fill:#1f77b4;stroke:#1f77b4;" x="236.724108" xlink:href="#m0043953e08" y="267.96441"/>
     <use style="fill:#1f77b4;stroke:#1f77b4;" x="154.577052" xlink:href="#m0043953e08" y="192.809544"/>
     <use style="fill:#1f77b4;stroke:#1f77b4;" x="244.717311" xlink:href="#m0043953e08" y="252.09778"/>
     <use style="fill:#1f77b4;stroke:#1f77b4;" x="143.843006" xlink:href="#m0043953e08" y="254.301751"/>
     <use style="fill:#1f77b4;stroke:#1f77b4;" x="203.121445" xlink:href="#m0043953e08" y="279.929941"/>
     <use style="fill:#1f77b4;stroke:#1f77b4;" x="225.990174" xlink:href="#m0043953e08" y="249.048218"/>
     <use style="fill:#1f77b4;stroke:#1f77b4;" x="219.099379" xlink:href="#m0043953e08" y="269.126068"/>
     <use style="fill:#1f77b4;stroke:#1f77b4;" x="167.792754" xlink:href="#m0043953e08" y="222.14011"/>
     <use style="fill:#1f77b4;stroke:#1f77b4;" x="321.387199" xlink:href="#m0043953e08" y="268.03141"/>
     <use style="fill:#1f77b4;stroke:#1f77b4;" x="224.809862" xlink:href="#m0043953e08" y="273.383138"/>
     <use style="fill:#1f77b4;stroke:#1f77b4;" x="280.634367" xlink:href="#m0043953e08" y="249.567508"/>
     <use style="fill:#1f77b4;stroke:#1f77b4;" x="377.330139" xlink:href="#m0043953e08" y="271.374671"/>
     <use style="fill:#1f77b4;stroke:#1f77b4;" x="293.289294" xlink:href="#m0043953e08" y="211.872771"/>
     <use style="fill:#1f77b4;stroke:#1f77b4;" x="221.836165" xlink:href="#m0043953e08" y="252.599003"/>
     <use style="fill:#1f77b4;stroke:#1f77b4;" x="145.097924" xlink:href="#m0043953e08" y="237.616233"/>
     <use style="fill:#1f77b4;stroke:#1f77b4;" x="148.521883" xlink:href="#m0043953e08" y="243.479323"/>
     <use style="fill:#1f77b4;stroke:#1f77b4;" x="240.277079" xlink:href="#m0043953e08" y="252.671513"/>
     <use style="fill:#1f77b4;stroke:#1f77b4;" x="378.016606" xlink:href="#m0043953e08" y="188.886143"/>
     <use style="fill:#1f77b4;stroke:#1f77b4;" x="211.454363" xlink:href="#m0043953e08" y="222.173415"/>
     <use style="fill:#1f77b4;stroke:#1f77b4;" x="182.140066" xlink:href="#m0043953e08" y="231.614564"/>
     <use style="fill:#1f77b4;stroke:#1f77b4;" x="249.127149" xlink:href="#m0043953e08" y="215.966533"/>
     <use style="fill:#1f77b4;stroke:#1f77b4;" x="124.380138" xlink:href="#m0043953e08" y="219.109173"/>
     <use style="fill:#1f77b4;stroke:#1f77b4;" x="227.37798" xlink:href="#m0043953e08" y="254.714968"/>
     <use style="fill:#1f77b4;stroke:#1f77b4;" x="386.031854" xlink:href="#m0043953e08" y="256.102835"/>
     <use style="fill:#1f77b4;stroke:#1f77b4;" x="199.72441" xlink:href="#m0043953e08" y="201.496321"/>
     <use style="fill:#1f77b4;stroke:#1f77b4;" x="150.577462" xlink:href="#m0043953e08" y="225.733852"/>
     <use style="fill:#1f77b4;stroke:#1f77b4;" x="233.741662" xlink:href="#m0043953e08" y="254.451412"/>
     <use style="fill:#1f77b4;stroke:#1f77b4;" x="153.70979" xlink:href="#m0043953e08" y="225.024042"/>
     <use style="fill:#1f77b4;stroke:#1f77b4;" x="127.653145" xlink:href="#m0043953e08" y="227.084686"/>
     <use style="fill:#1f77b4;stroke:#1f77b4;" x="227.774939" xlink:href="#m0043953e08" y="276.808157"/>
     <use style="fill:#1f77b4;stroke:#1f77b4;" x="229.845931" xlink:href="#m0043953e08" y="261.111401"/>
     <use style="fill:#1f77b4;stroke:#1f77b4;" x="252.233975" xlink:href="#m0043953e08" y="257.212477"/>
     <use style="fill:#1f77b4;stroke:#1f77b4;" x="110.58375" xlink:href="#m0043953e08" y="253.781861"/>
     <use style="fill:#1f77b4;stroke:#1f77b4;" x="275.46133" xlink:href="#m0043953e08" y="184.23493"/>
     <use style="fill:#1f77b4;stroke:#1f77b4;" x="365.462852" xlink:href="#m0043953e08" y="213.948886"/>
     <use style="fill:#1f77b4;stroke:#1f77b4;" x="140.874256" xlink:href="#m0043953e08" y="237.621458"/>
     <use style="fill:#1f77b4;stroke:#1f77b4;" x="142.742297" xlink:href="#m0043953e08" y="243.290675"/>
     <use style="fill:#1f77b4;stroke:#1f77b4;" x="414.607808" xlink:href="#m0043953e08" y="201.528904"/>
     <use style="fill:#1f77b4;stroke:#1f77b4;" x="167.092541" xlink:href="#m0043953e08" y="245.486454"/>
     <use style="fill:#1f77b4;stroke:#1f77b4;" x="337.434947" xlink:href="#m0043953e08" y="244.79339"/>
     <use style="fill:#1f77b4;stroke:#1f77b4;" x="227.293677" xlink:href="#m0043953e08" y="243.918759"/>
     <use style="fill:#1f77b4;stroke:#1f77b4;" x="325.120908" xlink:href="#m0043953e08" y="262.407251"/>
     <use style="fill:#1f77b4;stroke:#1f77b4;" x="364.34905" xlink:href="#m0043953e08" y="262.789028"/>
     <use style="fill:#1f77b4;stroke:#1f77b4;" x="222.472662" xlink:href="#m0043953e08" y="266.04096"/>
     <use style="fill:#1f77b4;stroke:#1f77b4;" x="261.484232" xlink:href="#m0043953e08" y="247.122228"/>
     <use style="fill:#1f77b4;stroke:#1f77b4;" x="211.523164" xlink:href="#m0043953e08" y="261.968258"/>
     <use style="fill:#1f77b4;stroke:#1f77b4;" x="259.703479" xlink:href="#m0043953e08" y="259.092756"/>
     <use style="fill:#1f77b4;stroke:#1f77b4;" x="301.138017" xlink:href="#m0043953e08" y="266.090945"/>
     <use style="fill:#1f77b4;stroke:#1f77b4;" x="163.406084" xlink:href="#m0043953e08" y="226.575186"/>
     <use style="fill:#1f77b4;stroke:#1f77b4;" x="234.333152" xlink:href="#m0043953e08" y="254.611684"/>
     <use style="fill:#1f77b4;stroke:#1f77b4;" x="66.213212" xlink:href="#m0043953e08" y="266.095334"/>
     <use style="fill:#1f77b4;stroke:#1f77b4;" x="167.915907" xlink:href="#m0043953e08" y="263.169845"/>
     <use style="fill:#1f77b4;stroke:#1f77b4;" x="309.790454" xlink:href="#m0043953e08" y="280.253308"/>
     <use style="fill:#1f77b4;stroke:#1f77b4;" x="153.221131" xlink:href="#m0043953e08" y="227.816298"/>
     <use style="fill:#1f77b4;stroke:#1f77b4;" x="281.870022" xlink:href="#m0043953e08" y="213.112375"/>
     <use style="fill:#1f77b4;stroke:#1f77b4;" x="180.921165" xlink:href="#m0043953e08" y="254.018223"/>
     <use style="fill:#1f77b4;stroke:#1f77b4;" x="366.147137" xlink:href="#m0043953e08" y="289.346963"/>
     <use style="fill:#1f77b4;stroke:#1f77b4;" x="223.568091" xlink:href="#m0043953e08" y="278.27319"/>
     <use style="fill:#1f77b4;stroke:#1f77b4;" x="155.844648" xlink:href="#m0043953e08" y="255.060979"/>
     <use style="fill:#1f77b4;stroke:#1f77b4;" x="287.00969" xlink:href="#m0043953e08" y="227.031508"/>
     <use style="fill:#1f77b4;stroke:#1f77b4;" x="226.873488" xlink:href="#m0043953e08" y="243.898358"/>
     <use style="fill:#1f77b4;stroke:#1f77b4;" x="185.49195" xlink:href="#m0043953e08" y="252.224922"/>
     <use style="fill:#1f77b4;stroke:#1f77b4;" x="303.66378" xlink:href="#m0043953e08" y="282.943419"/>
     <use style="fill:#1f77b4;stroke:#1f77b4;" x="251.142933" xlink:href="#m0043953e08" y="211.987278"/>
     <use style="fill:#1f77b4;stroke:#1f77b4;" x="175.782064" xlink:href="#m0043953e08" y="269.564849"/>
     <use style="fill:#1f77b4;stroke:#1f77b4;" x="228.015337" xlink:href="#m0043953e08" y="259.494131"/>
     <use style="fill:#1f77b4;stroke:#1f77b4;" x="77.784029" xlink:href="#m0043953e08" y="270.983042"/>
     <use style="fill:#1f77b4;stroke:#1f77b4;" x="139.703807" xlink:href="#m0043953e08" y="231.638706"/>
     <use style="fill:#1f77b4;stroke:#1f77b4;" x="268.231576" xlink:href="#m0043953e08" y="222.392705"/>
     <use style="fill:#1f77b4;stroke:#1f77b4;" x="95.402456" xlink:href="#m0043953e08" y="250.837097"/>
     <use style="fill:#1f77b4;stroke:#1f77b4;" x="431.506788" xlink:href="#m0043953e08" y="206.887995"/>
     <use style="fill:#1f77b4;stroke:#1f77b4;" x="156.377744" xlink:href="#m0043953e08" y="216.256834"/>
     <use style="fill:#1f77b4;stroke:#1f77b4;" x="310.785333" xlink:href="#m0043953e08" y="289.648943"/>
     <use style="fill:#1f77b4;stroke:#1f77b4;" x="252.728552" xlink:href="#m0043953e08" y="254.794583"/>
     <use style="fill:#1f77b4;stroke:#1f77b4;" x="212.263191" xlink:href="#m0043953e08" y="272.148038"/>
     <use style="fill:#1f77b4;stroke:#1f77b4;" x="412.576409" xlink:href="#m0043953e08" y="207.090769"/>
     <use style="fill:#1f77b4;stroke:#1f77b4;" x="253.351196" xlink:href="#m0043953e08" y="226.735971"/>
     <use style="fill:#1f77b4;stroke:#1f77b4;" x="106.688855" xlink:href="#m0043953e08" y="238.171186"/>
     <use style="fill:#1f77b4;stroke:#1f77b4;" x="350.675653" xlink:href="#m0043953e08" y="238.469688"/>
     <use style="fill:#1f77b4;stroke:#1f77b4;" x="364.730111" xlink:href="#m0043953e08" y="262.991864"/>
     <use style="fill:#1f77b4;stroke:#1f77b4;" x="144.305734" xlink:href="#m0043953e08" y="240.721104"/>
     <use style="fill:#1f77b4;stroke:#1f77b4;" x="231.816389" xlink:href="#m0043953e08" y="265.765418"/>
     <use style="fill:#1f77b4;stroke:#1f77b4;" x="148.923491" xlink:href="#m0043953e08" y="221.758971"/>
     <use style="fill:#1f77b4;stroke:#1f77b4;" x="224.561249" xlink:href="#m0043953e08" y="267.055923"/>
     <use style="fill:#1f77b4;stroke:#1f77b4;" x="170.548866" xlink:href="#m0043953e08" y="234.204154"/>
     <use style="fill:#1f77b4;stroke:#1f77b4;" x="133.62962" xlink:href="#m0043953e08" y="226.753152"/>
     <use style="fill:#1f77b4;stroke:#1f77b4;" x="154.566253" xlink:href="#m0043953e08" y="243.035927"/>
     <use style="fill:#1f77b4;stroke:#1f77b4;" x="250.612663" xlink:href="#m0043953e08" y="264.360836"/>
     <use style="fill:#1f77b4;stroke:#1f77b4;" x="85.487493" xlink:href="#m0043953e08" y="257.759727"/>
     <use style="fill:#1f77b4;stroke:#1f77b4;" x="257.875529" xlink:href="#m0043953e08" y="274.744811"/>
     <use style="fill:#1f77b4;stroke:#1f77b4;" x="349.964318" xlink:href="#m0043953e08" y="273.698562"/>
     <use style="fill:#1f77b4;stroke:#1f77b4;" x="228.230292" xlink:href="#m0043953e08" y="260.266278"/>
     <use style="fill:#1f77b4;stroke:#1f77b4;" x="232.151949" xlink:href="#m0043953e08" y="231.952533"/>
     <use style="fill:#1f77b4;stroke:#1f77b4;" x="162.945022" xlink:href="#m0043953e08" y="209.319396"/>
     <use style="fill:#1f77b4;stroke:#1f77b4;" x="236.098662" xlink:href="#m0043953e08" y="271.009909"/>
     <use style="fill:#1f77b4;stroke:#1f77b4;" x="158.578343" xlink:href="#m0043953e08" y="265.787834"/>
     <use style="fill:#1f77b4;stroke:#1f77b4;" x="357.18849" xlink:href="#m0043953e08" y="249.195019"/>
     <use style="fill:#1f77b4;stroke:#1f77b4;" x="209.769858" xlink:href="#m0043953e08" y="280.715433"/>
     <use style="fill:#1f77b4;stroke:#1f77b4;" x="387.874476" xlink:href="#m0043953e08" y="192.898156"/>
     <use style="fill:#1f77b4;stroke:#1f77b4;" x="148.267701" xlink:href="#m0043953e08" y="241.423839"/>
     <use style="fill:#1f77b4;stroke:#1f77b4;" x="378.296106" xlink:href="#m0043953e08" y="266.924236"/>
     <use style="fill:#1f77b4;stroke:#1f77b4;" x="135.695598" xlink:href="#m0043953e08" y="265.212761"/>
     <use style="fill:#1f77b4;stroke:#1f77b4;" x="196.138532" xlink:href="#m0043953e08" y="265.189742"/>
     <use style="fill:#1f77b4;stroke:#1f77b4;" x="335.890772" xlink:href="#m0043953e08" y="275.810143"/>
     <use style="fill:#1f77b4;stroke:#1f77b4;" x="226.140732" xlink:href="#m0043953e08" y="225.953028"/>
     <use style="fill:#1f77b4;stroke:#1f77b4;" x="188.504812" xlink:href="#m0043953e08" y="238.530499"/>
     <use style="fill:#1f77b4;stroke:#1f77b4;" x="222.442593" xlink:href="#m0043953e08" y="265.928009"/>
     <use style="fill:#1f77b4;stroke:#1f77b4;" x="231.154729" xlink:href="#m0043953e08" y="256.736013"/>
     <use style="fill:#1f77b4;stroke:#1f77b4;" x="210.034585" xlink:href="#m0043953e08" y="256.7992"/>
     <use style="fill:#1f77b4;stroke:#1f77b4;" x="247.617734" xlink:href="#m0043953e08" y="254.397215"/>
     <use style="fill:#1f77b4;stroke:#1f77b4;" x="261.719892" xlink:href="#m0043953e08" y="219.553332"/>
     <use style="fill:#1f77b4;stroke:#1f77b4;" x="360.425008" xlink:href="#m0043953e08" y="264.466269"/>
     <use style="fill:#1f77b4;stroke:#1f77b4;" x="371.056705" xlink:href="#m0043953e08" y="245.908134"/>
     <use style="fill:#1f77b4;stroke:#1f77b4;" x="364.743549" xlink:href="#m0043953e08" y="258.101398"/>
     <use style="fill:#1f77b4;stroke:#1f77b4;" x="252.528048" xlink:href="#m0043953e08" y="266.346059"/>
     <use style="fill:#1f77b4;stroke:#1f77b4;" x="208.847579" xlink:href="#m0043953e08" y="214.303377"/>
     <use style="fill:#1f77b4;stroke:#1f77b4;" x="260.067131" xlink:href="#m0043953e08" y="272.454596"/>
     <use style="fill:#1f77b4;stroke:#1f77b4;" x="151.60825" xlink:href="#m0043953e08" y="225.483653"/>
     <use style="fill:#1f77b4;stroke:#1f77b4;" x="309.10441" xlink:href="#m0043953e08" y="280.654236"/>
     <use style="fill:#1f77b4;stroke:#1f77b4;" x="200.861324" xlink:href="#m0043953e08" y="286.066922"/>
     <use style="fill:#1f77b4;stroke:#1f77b4;" x="121.260145" xlink:href="#m0043953e08" y="262.445346"/>
     <use style="fill:#1f77b4;stroke:#1f77b4;" x="141.65943" xlink:href="#m0043953e08" y="221.431855"/>
     <use style="fill:#1f77b4;stroke:#1f77b4;" x="415.046807" xlink:href="#m0043953e08" y="201.119575"/>
     <use style="fill:#1f77b4;stroke:#1f77b4;" x="207.715686" xlink:href="#m0043953e08" y="259.350014"/>
     <use style="fill:#1f77b4;stroke:#1f77b4;" x="250.274064" xlink:href="#m0043953e08" y="261.736281"/>
     <use style="fill:#1f77b4;stroke:#1f77b4;" x="234.931914" xlink:href="#m0043953e08" y="263.775276"/>
     <use style="fill:#1f77b4;stroke:#1f77b4;" x="124.151238" xlink:href="#m0043953e08" y="256.285185"/>
     <use style="fill:#1f77b4;stroke:#1f77b4;" x="215.245779" xlink:href="#m0043953e08" y="251.242438"/>
     <use style="fill:#1f77b4;stroke:#1f77b4;" x="242.882735" xlink:href="#m0043953e08" y="247.967808"/>
     <use style="fill:#1f77b4;stroke:#1f77b4;" x="340.835681" xlink:href="#m0043953e08" y="261.337922"/>
     <use style="fill:#1f77b4;stroke:#1f77b4;" x="204.690807" xlink:href="#m0043953e08" y="239.010847"/>
     <use style="fill:#1f77b4;stroke:#1f77b4;" x="190.781967" xlink:href="#m0043953e08" y="232.756992"/>
     <use style="fill:#1f77b4;stroke:#1f77b4;" x="282.751164" xlink:href="#m0043953e08" y="216.002491"/>
     <use style="fill:#1f77b4;stroke:#1f77b4;" x="291.253817" xlink:href="#m0043953e08" y="224.44855"/>
     <use style="fill:#1f77b4;stroke:#1f77b4;" x="123.140517" xlink:href="#m0043953e08" y="251.777333"/>
     <use style="fill:#1f77b4;stroke:#1f77b4;" x="156.180564" xlink:href="#m0043953e08" y="242.866366"/>
     <use style="fill:#1f77b4;stroke:#1f77b4;" x="229.560958" xlink:href="#m0043953e08" y="208.738387"/>
     <use style="fill:#1f77b4;stroke:#1f77b4;" x="255.876025" xlink:href="#m0043953e08" y="227.088637"/>
     <use style="fill:#1f77b4;stroke:#1f77b4;" x="252.427532" xlink:href="#m0043953e08" y="220.350692"/>
     <use style="fill:#1f77b4;stroke:#1f77b4;" x="366.589946" xlink:href="#m0043953e08" y="257.316509"/>
     <use style="fill:#1f77b4;stroke:#1f77b4;" x="277.277539" xlink:href="#m0043953e08" y="266.910184"/>
     <use style="fill:#1f77b4;stroke:#1f77b4;" x="245.104612" xlink:href="#m0043953e08" y="243.938147"/>
     <use style="fill:#1f77b4;stroke:#1f77b4;" x="82.949882" xlink:href="#m0043953e08" y="249.023218"/>
     <use style="fill:#1f77b4;stroke:#1f77b4;" x="185.654327" xlink:href="#m0043953e08" y="266.678897"/>
     <use style="fill:#1f77b4;stroke:#1f77b4;" x="213.687528" xlink:href="#m0043953e08" y="265.368884"/>
     <use style="fill:#1f77b4;stroke:#1f77b4;" x="208.926313" xlink:href="#m0043953e08" y="262.737153"/>
     <use style="fill:#1f77b4;stroke:#1f77b4;" x="369.392522" xlink:href="#m0043953e08" y="258.296567"/>
     <use style="fill:#1f77b4;stroke:#1f77b4;" x="127.706199" xlink:href="#m0043953e08" y="236.323736"/>
     <use style="fill:#1f77b4;stroke:#1f77b4;" x="226.568927" xlink:href="#m0043953e08" y="250.467926"/>
     <use style="fill:#1f77b4;stroke:#1f77b4;" x="134.634789" xlink:href="#m0043953e08" y="264.863051"/>
     <use style="fill:#1f77b4;stroke:#1f77b4;" x="125.507862" xlink:href="#m0043953e08" y="204.987638"/>
     <use style="fill:#1f77b4;stroke:#1f77b4;" x="160.602611" xlink:href="#m0043953e08" y="273.318868"/>
     <use style="fill:#1f77b4;stroke:#1f77b4;" x="240.677441" xlink:href="#m0043953e08" y="257.310261"/>
     <use style="fill:#1f77b4;stroke:#1f77b4;" x="210.514915" xlink:href="#m0043953e08" y="218.530518"/>
     <use style="fill:#1f77b4;stroke:#1f77b4;" x="227.0133" xlink:href="#m0043953e08" y="263.652495"/>
     <use style="fill:#1f77b4;stroke:#1f77b4;" x="383.682682" xlink:href="#m0043953e08" y="205.497656"/>
     <use style="fill:#1f77b4;stroke:#1f77b4;" x="279.180366" xlink:href="#m0043953e08" y="222.283817"/>
     <use style="fill:#1f77b4;stroke:#1f77b4;" x="211.397791" xlink:href="#m0043953e08" y="248.942748"/>
     <use style="fill:#1f77b4;stroke:#1f77b4;" x="242.164576" xlink:href="#m0043953e08" y="241.855447"/>
     <use style="fill:#1f77b4;stroke:#1f77b4;" x="421.464899" xlink:href="#m0043953e08" y="206.852936"/>
     <use style="fill:#1f77b4;stroke:#1f77b4;" x="159.159384" xlink:href="#m0043953e08" y="198.425477"/>
     <use style="fill:#1f77b4;stroke:#1f77b4;" x="156.274889" xlink:href="#m0043953e08" y="256.34546"/>
     <use style="fill:#1f77b4;stroke:#1f77b4;" x="382.225957" xlink:href="#m0043953e08" y="254.605634"/>
     <use style="fill:#1f77b4;stroke:#1f77b4;" x="186.734347" xlink:href="#m0043953e08" y="235.722673"/>
     <use style="fill:#1f77b4;stroke:#1f77b4;" x="354.443367" xlink:href="#m0043953e08" y="252.474935"/>
     <use style="fill:#1f77b4;stroke:#1f77b4;" x="252.329414" xlink:href="#m0043953e08" y="208.76315"/>
     <use style="fill:#1f77b4;stroke:#1f77b4;" x="168.608963" xlink:href="#m0043953e08" y="224.662041"/>
     <use style="fill:#1f77b4;stroke:#1f77b4;" x="197.011197" xlink:href="#m0043953e08" y="242.653936"/>
    </g>
   </g>
   <g id="matplotlib.axis_3">
    <g id="xtick_11">
     <g id="line2d_17">
      <g>
       <use style="stroke:#000000;stroke-width:0.8;" x="82.083777" xlink:href="#m9fc06b576d" y="303.64"/>
      </g>
     </g>
     <g id="text_19">
      <!-- 4 -->
      <defs>
       <path d="M 10.59375 35.5 
L 73.1875 35.5 
L 73.1875 27.203125 
L 10.59375 27.203125 
z
" id="DejaVuSans-8722"/>
      </defs>
      <g transform="translate(74.712683 318.238437)scale(0.1 -0.1)">
       <use xlink:href="#DejaVuSans-8722"/>
       <use x="83.789062" xlink:href="#DejaVuSans-52"/>
      </g>
     </g>
    </g>
    <g id="xtick_12">
     <g id="line2d_18">
      <g>
       <use style="stroke:#000000;stroke-width:0.8;" x="150.782108" xlink:href="#m9fc06b576d" y="303.64"/>
      </g>
     </g>
     <g id="text_20">
      <!-- 2 -->
      <g transform="translate(143.411014 318.238437)scale(0.1 -0.1)">
       <use xlink:href="#DejaVuSans-8722"/>
       <use x="83.789062" xlink:href="#DejaVuSans-50"/>
      </g>
     </g>
    </g>
    <g id="xtick_13">
     <g id="line2d_19">
      <g>
       <use style="stroke:#000000;stroke-width:0.8;" x="219.48044" xlink:href="#m9fc06b576d" y="303.64"/>
      </g>
     </g>
     <g id="text_21">
      <!-- 0 -->
      <g transform="translate(216.29919 318.238437)scale(0.1 -0.1)">
       <use xlink:href="#DejaVuSans-48"/>
      </g>
     </g>
    </g>
    <g id="xtick_14">
     <g id="line2d_20">
      <g>
       <use style="stroke:#000000;stroke-width:0.8;" x="288.178771" xlink:href="#m9fc06b576d" y="303.64"/>
      </g>
     </g>
     <g id="text_22">
      <!-- 2 -->
      <g transform="translate(284.997521 318.238437)scale(0.1 -0.1)">
       <use xlink:href="#DejaVuSans-50"/>
      </g>
     </g>
    </g>
    <g id="xtick_15">
     <g id="line2d_21">
      <g>
       <use style="stroke:#000000;stroke-width:0.8;" x="356.877103" xlink:href="#m9fc06b576d" y="303.64"/>
      </g>
     </g>
     <g id="text_23">
      <!-- 4 -->
      <g transform="translate(353.695853 318.238437)scale(0.1 -0.1)">
       <use xlink:href="#DejaVuSans-52"/>
      </g>
     </g>
    </g>
    <g id="xtick_16">
     <g id="line2d_22">
      <g>
       <use style="stroke:#000000;stroke-width:0.8;" x="425.575434" xlink:href="#m9fc06b576d" y="303.64"/>
      </g>
     </g>
     <g id="text_24">
      <!-- 6 -->
      <g transform="translate(422.394184 318.238437)scale(0.1 -0.1)">
       <use xlink:href="#DejaVuSans-54"/>
      </g>
     </g>
    </g>
    <g id="text_25">
     <!-- PC1 -->
     <g transform="translate(239.1725 331.916562)scale(0.1 -0.1)">
      <use xlink:href="#DejaVuSans-80"/>
      <use x="60.302734" xlink:href="#DejaVuSans-67"/>
      <use x="130.126953" xlink:href="#DejaVuSans-49"/>
     </g>
    </g>
   </g>
   <g id="matplotlib.axis_4">
    <g id="ytick_7">
     <g id="line2d_23">
      <g>
       <use style="stroke:#000000;stroke-width:0.8;" x="47.72" xlink:href="#m3801fbabe3" y="279.384986"/>
      </g>
     </g>
     <g id="text_26">
      <!-- 2 -->
      <g transform="translate(25.977813 283.184205)scale(0.1 -0.1)">
       <use xlink:href="#DejaVuSans-8722"/>
       <use x="83.789062" xlink:href="#DejaVuSans-50"/>
      </g>
     </g>
    </g>
    <g id="ytick_8">
     <g id="line2d_24">
      <g>
       <use style="stroke:#000000;stroke-width:0.8;" x="47.72" xlink:href="#m3801fbabe3" y="242.076432"/>
      </g>
     </g>
     <g id="text_27">
      <!-- 0 -->
      <g transform="translate(34.3575 245.87565)scale(0.1 -0.1)">
       <use xlink:href="#DejaVuSans-48"/>
      </g>
     </g>
    </g>
    <g id="ytick_9">
     <g id="line2d_25">
      <g>
       <use style="stroke:#000000;stroke-width:0.8;" x="47.72" xlink:href="#m3801fbabe3" y="204.767877"/>
      </g>
     </g>
     <g id="text_28">
      <!-- 2 -->
      <g transform="translate(34.3575 208.567096)scale(0.1 -0.1)">
       <use xlink:href="#DejaVuSans-50"/>
      </g>
     </g>
    </g>
    <g id="text_29">
     <!-- PC2 -->
     <g transform="translate(19.898125 250.6075)rotate(-90)scale(0.1 -0.1)">
      <use xlink:href="#DejaVuSans-80"/>
      <use x="60.302734" xlink:href="#DejaVuSans-67"/>
      <use x="130.126953" xlink:href="#DejaVuSans-50"/>
     </g>
    </g>
   </g>
   <g id="patch_18">
    <path d="M 47.72 303.64 
L 47.72 178.2 
" style="fill:none;stroke:#000000;stroke-linecap:square;stroke-linejoin:miter;stroke-width:0.8;"/>
   </g>
   <g id="patch_19">
    <path d="M 450 303.64 
L 450 178.2 
" style="fill:none;stroke:#000000;stroke-linecap:square;stroke-linejoin:miter;stroke-width:0.8;"/>
   </g>
   <g id="patch_20">
    <path d="M 47.72 303.64 
L 450 303.64 
" style="fill:none;stroke:#000000;stroke-linecap:square;stroke-linejoin:miter;stroke-width:0.8;"/>
   </g>
   <g id="patch_21">
    <path d="M 47.72 178.2 
L 450 178.2 
" style="fill:none;stroke:#000000;stroke-linecap:square;stroke-linejoin:miter;stroke-width:0.8;"/>
   </g>
  </g>
 </g>
 <defs>
  <clipPath id="pa89aec0920">
   <rect height="125.44" width="402.28" x="47.72" y="10.8"/>
  </clipPath>
  <clipPath id="p8554b05b33">
   <rect height="125.44" width="402.28" x="47.72" y="178.2"/>
  </clipPath>
 </defs>
</svg>
